<mxfile host="app.diagrams.net" modified="2023-11-24T12:27:37.763Z" agent="Mozilla/5.0 (Windows NT 10.0; Win64; x64) AppleWebKit/537.36 (KHTML, like Gecko) Chrome/119.0.0.0 Safari/537.36" etag="M0eC1pAFu_mrypIFacp0" version="22.1.3" type="device">
  <diagram name="Страница — 1" id="h3p8oznGBV2YPkbBVuE9">
    <mxGraphModel dx="945" dy="524" grid="1" gridSize="10" guides="1" tooltips="1" connect="1" arrows="1" fold="1" page="1" pageScale="1" pageWidth="827" pageHeight="1169" math="0" shadow="0">
      <root>
        <mxCell id="0" />
        <mxCell id="1" parent="0" />
        <mxCell id="pIvZsESNh6aGeJ2h0sC2-20" value="" style="rounded=0;whiteSpace=wrap;html=1;" vertex="1" parent="1">
          <mxGeometry x="40" y="40" width="670" height="470" as="geometry" />
        </mxCell>
        <mxCell id="pIvZsESNh6aGeJ2h0sC2-5" style="edgeStyle=orthogonalEdgeStyle;rounded=0;orthogonalLoop=1;jettySize=auto;html=1;entryX=0;entryY=0.5;entryDx=0;entryDy=0;" edge="1" parent="1" source="pIvZsESNh6aGeJ2h0sC2-1" target="pIvZsESNh6aGeJ2h0sC2-3">
          <mxGeometry relative="1" as="geometry" />
        </mxCell>
        <mxCell id="pIvZsESNh6aGeJ2h0sC2-6" style="edgeStyle=orthogonalEdgeStyle;rounded=0;orthogonalLoop=1;jettySize=auto;html=1;entryX=0;entryY=0.5;entryDx=0;entryDy=0;" edge="1" parent="1" source="pIvZsESNh6aGeJ2h0sC2-1" target="pIvZsESNh6aGeJ2h0sC2-2">
          <mxGeometry relative="1" as="geometry" />
        </mxCell>
        <mxCell id="pIvZsESNh6aGeJ2h0sC2-7" style="edgeStyle=orthogonalEdgeStyle;rounded=0;orthogonalLoop=1;jettySize=auto;html=1;entryX=0;entryY=0.5;entryDx=0;entryDy=0;" edge="1" parent="1" source="pIvZsESNh6aGeJ2h0sC2-1" target="pIvZsESNh6aGeJ2h0sC2-4">
          <mxGeometry relative="1" as="geometry" />
        </mxCell>
        <mxCell id="pIvZsESNh6aGeJ2h0sC2-1" value="Actor" style="shape=umlActor;verticalLabelPosition=bottom;verticalAlign=top;html=1;outlineConnect=0;" vertex="1" parent="1">
          <mxGeometry x="70" y="175" width="30" height="60" as="geometry" />
        </mxCell>
        <mxCell id="pIvZsESNh6aGeJ2h0sC2-2" value="Подключение" style="ellipse;whiteSpace=wrap;html=1;" vertex="1" parent="1">
          <mxGeometry x="180" y="90" width="120" height="50" as="geometry" />
        </mxCell>
        <mxCell id="pIvZsESNh6aGeJ2h0sC2-11" style="edgeStyle=orthogonalEdgeStyle;rounded=0;orthogonalLoop=1;jettySize=auto;html=1;entryX=0;entryY=0.5;entryDx=0;entryDy=0;" edge="1" parent="1" source="pIvZsESNh6aGeJ2h0sC2-3" target="pIvZsESNh6aGeJ2h0sC2-8">
          <mxGeometry relative="1" as="geometry" />
        </mxCell>
        <mxCell id="pIvZsESNh6aGeJ2h0sC2-12" style="edgeStyle=orthogonalEdgeStyle;rounded=0;orthogonalLoop=1;jettySize=auto;html=1;entryX=0;entryY=0.5;entryDx=0;entryDy=0;" edge="1" parent="1" source="pIvZsESNh6aGeJ2h0sC2-3" target="pIvZsESNh6aGeJ2h0sC2-9">
          <mxGeometry relative="1" as="geometry" />
        </mxCell>
        <mxCell id="pIvZsESNh6aGeJ2h0sC2-3" value="Уборка" style="ellipse;whiteSpace=wrap;html=1;" vertex="1" parent="1">
          <mxGeometry x="180" y="180" width="120" height="50" as="geometry" />
        </mxCell>
        <mxCell id="pIvZsESNh6aGeJ2h0sC2-17" style="edgeStyle=orthogonalEdgeStyle;rounded=0;orthogonalLoop=1;jettySize=auto;html=1;entryX=0;entryY=0.5;entryDx=0;entryDy=0;" edge="1" parent="1" source="pIvZsESNh6aGeJ2h0sC2-4" target="pIvZsESNh6aGeJ2h0sC2-14">
          <mxGeometry relative="1" as="geometry" />
        </mxCell>
        <mxCell id="pIvZsESNh6aGeJ2h0sC2-18" style="edgeStyle=orthogonalEdgeStyle;rounded=0;orthogonalLoop=1;jettySize=auto;html=1;entryX=0;entryY=0.5;entryDx=0;entryDy=0;" edge="1" parent="1" source="pIvZsESNh6aGeJ2h0sC2-4" target="pIvZsESNh6aGeJ2h0sC2-15">
          <mxGeometry relative="1" as="geometry" />
        </mxCell>
        <mxCell id="pIvZsESNh6aGeJ2h0sC2-19" style="edgeStyle=orthogonalEdgeStyle;rounded=0;orthogonalLoop=1;jettySize=auto;html=1;entryX=0;entryY=0.5;entryDx=0;entryDy=0;" edge="1" parent="1" source="pIvZsESNh6aGeJ2h0sC2-4" target="pIvZsESNh6aGeJ2h0sC2-16">
          <mxGeometry relative="1" as="geometry" />
        </mxCell>
        <mxCell id="pIvZsESNh6aGeJ2h0sC2-4" value="Обслуживание" style="ellipse;whiteSpace=wrap;html=1;" vertex="1" parent="1">
          <mxGeometry x="180" y="270" width="120" height="50" as="geometry" />
        </mxCell>
        <mxCell id="pIvZsESNh6aGeJ2h0sC2-13" style="edgeStyle=orthogonalEdgeStyle;rounded=0;orthogonalLoop=1;jettySize=auto;html=1;entryX=0;entryY=0.5;entryDx=0;entryDy=0;" edge="1" parent="1" source="pIvZsESNh6aGeJ2h0sC2-8" target="pIvZsESNh6aGeJ2h0sC2-10">
          <mxGeometry relative="1" as="geometry" />
        </mxCell>
        <mxCell id="pIvZsESNh6aGeJ2h0sC2-8" value="Расписание" style="ellipse;whiteSpace=wrap;html=1;" vertex="1" parent="1">
          <mxGeometry x="360" y="180" width="120" height="50" as="geometry" />
        </mxCell>
        <mxCell id="pIvZsESNh6aGeJ2h0sC2-9" value="Выбор режима" style="ellipse;whiteSpace=wrap;html=1;" vertex="1" parent="1">
          <mxGeometry x="360" y="90" width="120" height="50" as="geometry" />
        </mxCell>
        <mxCell id="pIvZsESNh6aGeJ2h0sC2-10" value="График" style="ellipse;whiteSpace=wrap;html=1;" vertex="1" parent="1">
          <mxGeometry x="550" y="180" width="120" height="50" as="geometry" />
        </mxCell>
        <mxCell id="pIvZsESNh6aGeJ2h0sC2-14" value="Ремонт" style="ellipse;whiteSpace=wrap;html=1;" vertex="1" parent="1">
          <mxGeometry x="360" y="270" width="120" height="50" as="geometry" />
        </mxCell>
        <mxCell id="pIvZsESNh6aGeJ2h0sC2-15" value="Просмотр статистики" style="ellipse;whiteSpace=wrap;html=1;" vertex="1" parent="1">
          <mxGeometry x="360" y="350" width="120" height="50" as="geometry" />
        </mxCell>
        <mxCell id="pIvZsESNh6aGeJ2h0sC2-16" value="Обновление" style="ellipse;whiteSpace=wrap;html=1;" vertex="1" parent="1">
          <mxGeometry x="360" y="430" width="120" height="50" as="geometry" />
        </mxCell>
      </root>
    </mxGraphModel>
  </diagram>
</mxfile>
